Coordinates
version=1
nRows=16
nColumns=36
inDegrees=yes

Units are S.I. units (second, meters, Newtons, ...)
If the header above contains a line with 'inDegrees', this indicates whether rotational values are in degrees (yes) or radians (no).

endheader
time	pelvis_tilt	pelvis_list	pelvis_rotation	pelvis_tx	pelvis_ty	pelvis_tz	hip_flexion_r	hip_adduction_r	hip_rotation_r	knee_angle_r	knee_angle_r_beta	ankle_angle_r	subtalar_angle_r	mtp_angle_r	hip_flexion_l	hip_adduction_l	hip_rotation_l	knee_angle_l	knee_angle_l_beta	ankle_angle_l	subtalar_angle_l	mtp_angle_l	lumbar_extension	lumbar_bending	lumbar_rotation	arm_flex_r	arm_add_r	arm_rot_r	elbow_flex_r	pro_sup_r	arm_flex_l	arm_add_l	arm_rot_l	elbow_flex_l	pro_sup_l
      0.00000000	      5.78605255	      3.87588555	      3.05668468	      0.53213433	      0.81105753	      0.68590860	    -11.40836044	     -2.88989924	      0.69719586	     42.55013974	      0.74264004	     -7.74837289	    -13.79500270	     -7.21902035	     16.19531138	      8.27186736	      5.96532797	     23.67560913	      0.41321733	      3.42819277	    -12.53815352	     -7.21902035	    -15.27150128	     -4.11523200	      2.25467530	      7.30426306	    -11.15877656	     -6.18516356	     24.72513670	     88.38989174	     11.39067645	    -10.77945723	     10.41721789	     17.59163503	     86.54789772
      0.01666670	      4.03564397	      3.54585349	      2.41705064	      0.52961150	      0.80829979	      0.68916884	     -2.68015853	     -3.40640579	      0.96173936	     52.80401230	      0.92160387	     -7.10326697	    -11.69029679	     -7.26725537	     16.52443356	      7.85219934	      5.70556719	     23.79991467	      0.41538687	      6.02996806	    -11.64824573	     -7.26725537	    -13.21855171	     -4.46076216	      2.96398329	      7.29425312	    -11.27805674	     -5.23375516	     23.17415890	     87.05136490	     11.69842212	    -10.91291007	     12.37659724	     17.57492412	     86.52364187
      0.03333330	      2.92099596	      3.70557717	      1.29629933	      0.53094733	      0.80838531	      0.68887144	      3.73160900	     -3.99080434	      2.09673345	     59.35162769	      1.03588132	     -6.15908902	    -11.11893466	     -7.30271208	     15.55312194	      7.88382721	      5.24758876	     22.17540103	      0.38703376	      7.78645923	    -11.16958177	     -7.30271208	    -11.68001791	     -4.65765461	      3.19792404	      7.67205448	    -11.52594935	     -4.33641020	     21.41428395	     86.82175196	     11.55613131	    -11.13624690	     13.60258450	     17.42781109	     86.94060362
      0.05000000	      2.15787629	      3.58326228	      0.18418215	      0.53595043	      0.80952083	      0.68573372	      8.54426693	     -4.06514996	      3.05358130	     63.45343575	      1.10747138	     -2.78126387	    -11.55729222	     -7.39066615	     14.27674083	      7.52551597	      4.06880840	     20.87153062	      0.36427693	      9.13368998	    -11.33043425	     -7.39066615	    -10.41566960	     -4.51370872	      3.67087350	      7.13709438	    -11.64906596	     -5.70046760	     20.55936926	     92.62562485	     11.39345856	    -10.96013223	     12.36525425	     17.73121788	     94.27500492
      0.06666670	      1.79473268	      3.44471218	     -0.59301720	      0.53973661	      0.81170665	      0.68330118	     12.51596356	     -3.82389521	      3.99226418	     66.07029717	      1.15314422	      1.15321341	    -12.03101242	     -7.39623744	     12.73711494	      7.29658158	      3.05046618	     19.97565504	      0.34864095	     10.32236502	    -11.14900414	     -7.39623744	     -9.66242601	     -4.27432944	      3.61352529	      6.31206525	    -11.62524929	     -5.65390097	     19.85105712	     92.22161031	     11.20248007	    -10.82098930	     12.40398952	     18.06496296	     93.85482110
      0.08333330	      1.05017703	      3.17691643	     -0.84015517	      0.54033300	      0.81309646	      0.68271247	     16.53495304	     -3.33122543	      4.61133506	     67.15253479	      1.17203283	      4.72464161	    -12.74897521	     -7.40315949	     11.87559904	      7.03933710	      2.57667608	     19.66779943	      0.34326786	     11.50792204	    -10.94680781	     -7.40315949	     -8.35149396	     -3.79061248	      2.98778394	      5.20558019	    -11.28882484	     -5.40867577	     18.62328281	     90.45370940	     11.02258288	    -10.72102039	     12.66812626	     17.96583898	     92.08914126
      0.10000000	      0.24027946	      2.87486402	     -0.98128706	      0.53776062	      0.81504297	      0.68344040	     20.12854414	     -2.67358744	      5.03964700	     66.90905603	      1.16778333	      7.46114737	    -13.19301386	     -7.41118701	     11.19608266	      6.69379062	      2.11858752	     19.50490337	      0.34042478	     12.69243973	    -10.42835457	     -7.41118701	     -7.11344964	     -3.30283992	      2.05255117	      4.13886024	    -10.96751824	     -4.47315061	     17.62336789	     91.41205827	     10.81309172	    -10.93548903	     13.31474716	     18.28207633	     93.31152766
      0.11666670	     -0.45279278	      2.42111325	     -0.93462846	      0.53339222	      0.81832397	      0.68388501	     23.01421337	     -1.89116441	      4.94825843	     65.17941311	      1.13759536	      9.20746835	    -13.09997374	     -7.45191101	     10.33590020	      6.21366402	      2.09919336	     19.21400720	      0.33534769	     13.66752670	    -10.07329761	     -7.45191101	     -6.14919755	     -2.65305659	      1.02468803	      3.25366910	    -10.48771178	     -5.86131646	     16.92719124	     94.40843327	     10.67268737	    -10.95960599	     11.82788626	     18.80822434	     96.37838009
      0.13333330	     -1.22389636	      1.97541125	     -0.91549665	      0.52913842	      0.82120661	      0.68400756	     25.58312460	     -1.19468815	      4.60678729	     62.39940151	      1.08907501	      9.94277216	    -12.81039545	     -7.45197835	      9.49901638	      5.72461418	      2.26557651	     18.68150211	      0.32605372	     14.23308970	     -9.95062093	     -7.45197835	     -5.11139734	     -2.04578688	      0.00581578	      2.64595216	    -10.14905820	     -5.88045021	     16.38859996	     93.60404187	     10.64206119	    -11.15183968	     11.62803740	     19.12194096	     95.64086439
      0.15000000	     -1.74844011	      1.48607475	     -0.84828179	      0.52624022	      0.82159072	      0.68467958	     27.47421538	     -0.59240606	      4.03541001	     58.88801520	      1.02778976	     10.03976989	    -12.33491290	     -7.45627751	      8.44217846	      5.09433949	      2.06092861	     18.06373325	      0.31527162	     15.32025861	     -8.31563694	     -7.45627751	     -4.36414709	     -1.43501944	     -1.02336546	      2.40143491	     -9.86933056	     -5.48052193	     15.43321843	     92.57507122	     10.73505445	    -11.50817764	     11.76306543	     19.61836893	     94.68374509
      0.16666670	     -2.40029951	      1.07237164	     -0.79810056	      0.52408708	      0.81901469	      0.68638625	     29.20048061	     -0.10151364	      3.53666617	     55.03227894	      0.96049446	      9.81840620	    -11.77545368	     -7.46087712	      7.69616700	      4.56715627	      1.91320285	     17.46525990	      0.30482629	     16.10838662	     -7.11528982	     -7.46087712	     -3.40093832	     -0.93903801	     -2.01187004	      1.88615878	     -9.62815303	     -5.38630022	     14.80112525	     91.96125637	     10.84219548	    -11.95212147	     11.56261946	     20.06581311	     94.20264148
      0.18333330	     -3.04390590	      0.90639648	     -0.72372424	      0.52104452	      0.81484361	      0.68825929	     30.76150949	      0.13386934	      3.28154660	     50.97651994	      0.88970811	      9.59421628	    -11.05650163	     -7.46156057	      7.14415004	      4.35582634	      1.94891756	     16.87733006	      0.29456498	     16.57510417	     -6.56181143	     -7.46156057	     -2.52080117	     -0.88539404	     -2.63823360	      0.81897036	     -9.36121487	     -5.48454864	     14.63949141	     91.81714820	     11.32620788	    -12.45954136	     11.39661337	     20.46683487	     94.05285441
      0.20000000	     -4.28123285	      0.49443866	     -0.44155814	      0.51695105	      0.80903677	      0.68863287	     32.76286348	      0.48522610	      2.99733034	     46.37469523	      0.80939112	      8.93369341	    -10.93846942	     -7.46332837	      7.72705237	      3.79560113	      1.43282042	     17.11778545	      0.29876172	     18.04376512	     -4.62435277	     -7.46332837	     -0.83497050	     -0.34153063	     -3.96000234	      0.33947301	     -9.08930055	     -6.53455014	     12.88060404	     91.83472113	     11.31662119	    -12.92832785	     10.78009172	     20.63091023	     94.31034576
      0.21666670	     -5.13312177	      0.32406106	     -0.19062933	      0.51293210	      0.80310122	      0.68752003	     34.37868114	      0.50070871	      2.97576647	     41.48290839	      0.72401333	      8.40530075	    -10.71308473	     -7.46502964	      7.91029785	      3.56399911	      1.28397210	     17.42558962	      0.30413391	     19.09368148	     -4.06365154	     -7.46502964	      0.17894042	     -0.10575313	     -4.82123874	     -0.42839135	     -8.94018140	     -7.47370099	     11.95294243	     91.53812966	     11.60792477	    -13.37798548	     10.22422615	     21.09930607	     94.18730699
      0.23333330	     -5.89198780	      0.13673466	     -0.01337198	      0.51134831	      0.79783430	      0.68556617	     35.91161543	      0.48286657	      3.08053273	     36.38948649	      0.63511635	      7.98366344	    -10.56873299	     -7.46717649	      7.80416548	      3.27433530	      1.11079543	     17.72257387	      0.30931727	     20.17967010	     -3.66084995	     -7.46717649	      1.09543424	      0.13788134	     -5.59649521	     -0.87349490	     -8.88920661	     -8.37805327	     10.95728605	     90.20310045	     11.83541709	    -13.81308754	      9.72705998	     21.50736975	     93.03576812
      0.25000000	     -6.60157087	     -0.11625716	      0.16337015	      0.51216265	      0.79406419	      0.68357408	     37.27001064	      0.48813802	      3.30168048	     31.14781616	      0.54363195	      7.83783884	    -10.04040627	     -7.48172350	      7.44415422	      2.87935591	      0.94100450	     17.92612382	      0.31286988	     21.12423390	     -3.18398745	     -7.48172350	      1.91990899	      0.53458935	     -6.44848552	     -1.13336840	     -8.65047142	    -13.79722441	     10.26706648	     92.89798398	     11.69463547	    -13.98688722	      7.28700870	     22.30657238	     96.52436625
